{"asset":{"version":"2.0","generator":"THREE.GLTFExporter"},"scenes":[{"name":"AuxScene","nodes":[1]}],"scene":0,"nodes":[{"matrix":[1,0,0,0,0,-1.3435885648505064e-7,0.9999999657714511,0,0,-0.9999999657714511,-1.3435885648505064e-7,0,0,0,0,1],"name":"coin","extras":{"name":"coin"},"mesh":0},{"name":"Scene","children":[0]}],"bufferViews":[{"buffer":0,"byteOffset":0,"byteLength":10596,"target":34962,"byteStride":12},{"buffer":0,"byteOffset":10596,"byteLength":10596,"target":34962,"byteStride":12},{"buffer":0,"byteOffset":21192,"byteLength":7064,"target":34962,"byteStride":8},{"buffer":0,"byteOffset":28256,"byteLength":10560,"target":34963}],"buffers":[{"byteLength":38816,"uri":"data:application/octet-stream;base64,"}],"accessors":[{"bufferView":0,"componentType":5126,"count":883,"max":[0.4230976998806,0.159958153963089,0.4230976998806],"min":[-0.4230974018573761,-0.16000032424926758,-0.4230974018573761],"type":"VEC3"},{"bufferView":1,"componentType":5126,"count":883,"max":[0.9935607314109802,1,0.9935607314109802],"min":[-0.9935607314109802,-1,-0.9935606718063354],"type":"VEC3"},{"bufferView":2,"componentType":5126,"count":883,"max":[1,1],"min":[0,0],"type":"VEC2"},{"bufferView":3,"componentType":5125,"count":2640,"max":[882],"min":[0],"type":"SCALAR"}],"materials":[{"pbrMetallicRoughness":{"baseColorFactor":[0.5294117647058824,0.19607843137254902,0.047058823529411764,1],"metallicFactor":0.7,"roughnessFactor":0.4},"alphaMode":"BLEND","name":"Gold.009"}],"meshes":[{"primitives":[{"mode":4,"attributes":{"POSITION":0,"NORMAL":1,"TEXCOORD_0":2},"indices":3,"material":0}]}]}